<svg width="20" height="24" xmlns="http://www.w3.org/2000/svg"><defs><linearGradient x1="50%" y1="0%" x2="50%" y2="100%" id="a"><stop stop-color="#A1F378" offset="0%"/><stop stop-color="#61D13B" offset="100%"/></linearGradient></defs><g fill="none"><path fill="url(#a)" d="M17.531 4.3V0H2.25v24h19.594V4.3z" transform="translate(-2)"/><path fill="#C1FF99" d="M19.844 4.313H15.53V0"/><path d="M15.318 10.127h-1.402L12.788 9h-2.729l-1.137 1.127h-3.24a.679.679 0 0 0-.682.676v5.522c0 .373.306.675.682.675h9.636a.68.68 0 0 0 .682-.675v-5.522a.679.679 0 0 0-.682-.676zm-3.887 5.93a2.497 2.497 0 0 1-2.508-2.487 2.497 2.497 0 0 1 2.508-2.485 2.497 2.497 0 0 1 2.508 2.485 2.497 2.497 0 0 1-2.508 2.486zM10 13.5a1.5 1.5 0 1 0 3 0 1.5 1.5 0 0 0-3 0z" fill="#FFF"/></g></svg>