<svg width="20" height="24" xmlns="http://www.w3.org/2000/svg"><defs><linearGradient x1="50%" y1="0%" x2="50%" y2="100%" id="a"><stop stop-color="#898AFB" offset="0%"/><stop stop-color="#6566F9" offset="100%"/></linearGradient></defs><g fill="none"><path d="M17.187.387H4.413a1.917 1.917 0 0 0-1.936 1.936v19.354c0 1.084.852 1.936 1.936 1.936H19.51a1.917 1.917 0 0 0 1.935-1.936V4.645L17.187.387z" fill="url(#a)" transform="translate(-2)"/><path d="M13.62 12.634l-4.954 3.303c-.522.347-.95.12-.95-.509V8.572c0-.628.428-.858.95-.508l4.954 3.305c.522.345.522.917 0 1.265z" fill="#FFF"/><path d="M15.265.348h-.078v3.097c0 .387.194 1.239 1.355 1.239h2.98L15.266.348z" fill="#C1C1F9"/></g></svg>