<svg width="20" height="24" xmlns="http://www.w3.org/2000/svg"><defs><linearGradient x1="50%" y1="0%" x2="50%" y2="99.607%" id="a"><stop stop-color="#FA937C" offset="0%"/><stop stop-color="#FD5E49" offset="100%"/></linearGradient></defs><g fill="none"><path fill="url(#a)" d="M17.531 4.3V0H2.25v24h19.594V4.3z" transform="translate(-2)"/><path fill="#FFA694" d="M19.844 4.313H15.53V0"/><path d="M14 8.635v7.402a.877.877 0 0 1-.222.589 1.486 1.486 0 0 1-.56.4 3.722 3.722 0 0 1-.673.211 3.17 3.17 0 0 1-.628.07c-.197 0-.405-.023-.629-.07a3.554 3.554 0 0 1-.673-.211 1.486 1.486 0 0 1-.56-.4.88.88 0 0 1-.221-.589.88.88 0 0 1 .222-.588 1.5 1.5 0 0 1 .56-.4c.225-.095.45-.165.672-.212a3.17 3.17 0 0 1 .629-.07c.456 0 .872.087 1.25.257v-3.546l-5 1.566v4.686a.88.88 0 0 1-.223.588 1.5 1.5 0 0 1-.56.4 3.722 3.722 0 0 1-.672.212 3.17 3.17 0 0 1-.629.07c-.196 0-.405-.023-.628-.07a3.554 3.554 0 0 1-.673-.212 1.486 1.486 0 0 1-.56-.4A.88.88 0 0 1 4 17.73c0-.222.074-.417.222-.589a1.5 1.5 0 0 1 .56-.4c.226-.095.45-.165.673-.212a3.17 3.17 0 0 1 .628-.07c.457 0 .872.087 1.25.257v-6.39c0-.136.041-.261.124-.374a.644.644 0 0 1 .32-.235l5.416-1.69A.557.557 0 0 1 13.374 8c.174 0 .323.06.443.184a.62.62 0 0 1 .183.451z" fill="#FFF"/></g></svg>