<svg width="20" height="24" xmlns="http://www.w3.org/2000/svg"><defs><linearGradient x1="50%" y1="0%" x2="50%" y2="100%" id="a"><stop stop-color="#FFA77D" offset="0%"/><stop stop-color="#F96E43" offset="100%"/></linearGradient></defs><g fill="none"><path d="M18.116.387H5.342a1.917 1.917 0 0 0-1.936 1.936v19.354c0 1.084.852 1.936 1.936 1.936h15.097a1.917 1.917 0 0 0 1.935-1.936V4.645L18.116.387z" fill="url(#a)" transform="translate(-3)"/><path fill="#FFF" opacity=".99" d="M7 8h2v9H7z"/><path d="M11.776 8H7v6h4.776C13.004 14 14 12.99 14 11.747v-1.494C14 9.009 13.004 8 11.776 8zm.5 3.747a.507.507 0 0 1-.5.508H8.723v-2.51h3.053c.275 0 .5.23.5.508v1.494z" fill="#FFF" opacity=".99"/><path d="M15.116.387h-.077v3.097c0 .387.193 1.239 1.355 1.239h2.98L15.116.387z" fill="#FFCCA1"/></g></svg>