<svg width="20" height="24" xmlns="http://www.w3.org/2000/svg"><defs><linearGradient x1="50%" y1="0%" x2="50%" y2="100%" id="a"><stop stop-color="#FFAC6D" offset="0%"/><stop stop-color="#FF793A" offset="100%"/></linearGradient></defs><path d="M20.129.387h-5.574c.116 0 .193.078.193.194v.387c0 .116-.077.193-.193.193h-1.858c-.116 0-.194-.077-.194-.193V.58c0-.116.078-.194.194-.194H3.87c-.852 0-1.548.697-1.548 1.548v20.13c0 .851.696 1.548 1.548 1.548h16.258c.852 0 1.548-.697 1.548-1.548V1.935c0-.851-.696-1.548-1.548-1.548zM9.329 7.13c0-.116.077-.194.194-.194h1.858c.116 0 .193.078.193.194v.387c0 .116-.077.194-.193.194H9.523c-.117 0-.194-.078-.194-.194V7.13zm0 2.323c0-.117.077-.194.194-.194h1.858c.116 0 .193.077.193.194v.387c0 .116-.077.193-.193.193H9.523c-.117 0-.194-.077-.194-.193v-.387zm0 2.71c0-.117.077-.194.194-.194h1.858c.116 0 .193.077.193.193v.387c0 .117-.077.194-.193.194H9.523c-.117 0-.194-.077-.194-.194v-.387zM14.749 17c0 1.51-1.2 2.71-2.71 2.71s-2.71-1.2-2.71-2.71v-2.71h5.42V17zm0-6c0 .116-.04.194-.117.194H12.62c-.077 0-.116-.078-.116-.194v-.387c0-.116.039-.194.116-.194h2.013c.078 0 .116.078.116.194V11zm0-2.71c0 .116-.078.194-.194.194h-1.858c-.116 0-.194-.078-.194-.194v-.387c0-.116.078-.193.194-.193h1.858c.116 0 .193.077.193.193v.387zm-5.42-5.838c0-.117.077-.194.194-.194h1.858c.116 0 .193.077.193.194v.387c0 .116-.077.193-.193.193H9.523c-.117 0-.194-.077-.194-.193v-.387zm0 2.71c0-.117.077-.194.194-.194h1.858c.116 0 .193.077.193.193v.387c0 .117-.077.194-.193.194H9.523c-.117 0-.194-.077-.194-.194v-.387zM14.749 4c0 .116-.04.194-.117.194H12.62c-.077 0-.116-.078-.116-.194v-.387c0-.116.039-.194.116-.194h2.013c.078 0 .116.078.116.194V4zm0-2.71c0 .116-.078.194-.194.194h-1.858c-.116 0-.194-.078-.194-.194V.903c0-.116.078-.193.194-.193h1.858c.116 0 .193.077.193.193v.387z" fill="url(#a)" transform="translate(-2)"/></svg>