<?xml version="1.0" encoding="UTF-8"?>
<svg width="24px" height="23px" viewBox="0 0 24 23" version="1.1" xmlns="http://www.w3.org/2000/svg" xmlns:xlink="http://www.w3.org/1999/xlink">
    <!-- Generator: Sketch 52.6 (67491) - http://www.bohemiancoding.com/sketch -->
    <title>电脑</title>
    <desc>Created with Sketch.</desc>
    <g id="Page-1" stroke="none" stroke-width="1" fill="none" fill-rule="evenodd">
        <g id="G+3" transform="translate(-1070.000000, -642.000000)" fill-rule="nonzero">
            <g id="双向同步列表" transform="translate(1059.000000, 59.000000)">
                <g id="3-copy-3">
                    <g id="Group-5-Copy" transform="translate(2.000000, 570.000000)">
                        <g id="pc-copy" transform="translate(7.000000, 10.000000)">
                            <g id="电脑">
                                <rect id="Rectangle" fill="#000000" opacity="0" x="0" y="0" width="28" height="28"></rect>
                                <path d="M15.748765,12.2709951 C15.748765,12.6856958 16.0849464,13.0218772 16.4996471,13.0218772 C16.9143479,13.0218772 17.2505293,12.6856958 17.2505293,12.2709951 C17.2505293,11.8562943 16.9143479,11.5201129 16.4996471,11.5201129 C16.0849464,11.5201129 15.748765,11.8562943 15.748765,12.2709951 Z" id="Path" fill="#157EFB"></path>
                                <path d="M13.1206775,12.2709951 C13.1206263,12.5392935 13.2637324,12.7872335 13.4960772,12.9213975 C13.728422,13.0555615 14.0146973,13.0555615 14.2470421,12.9213975 C14.4793868,12.7872335 14.622493,12.5392935 14.6224418,12.2709951 C14.622493,12.0026966 14.4793868,11.7547566 14.2470421,11.6205926 C14.0146973,11.4864286 13.728422,11.4864286 13.4960772,11.6205926 C13.2637324,11.7547566 13.1206263,12.0026966 13.1206775,12.2709951 Z" id="Path" fill="#157EFB"></path>
                                <path d="M10.49259,12.2709951 C10.4925388,12.5392935 10.6356449,12.7872335 10.8679897,12.9213975 C11.1003344,13.0555615 11.3866098,13.0555615 11.6189546,12.9213975 C11.8512993,12.7872335 11.9944055,12.5392935 11.9943543,12.2709951 C11.9944055,12.0026966 11.8512993,11.7547566 11.6189546,11.6205926 C11.3866098,11.4864286 11.1003344,11.4864286 10.8679897,11.6205926 C10.6356449,11.7547566 10.4925388,12.0026966 10.49259,12.2709951 Z" id="Path" fill="#157EFB"></path>
                                <path d="M23.3781869,3.5 L4.24148147,3.5 C3.1837037,3.5 2.33333333,4.77341549 2.33333333,5.81829357 L2.33333333,18.7657864 C2.33333333,19.8106645 3.1837037,21.0080927 4.24148147,21.0080927 L13.2637037,21.0080927 L13.2637037,23.3225389 L6.83407407,23.3225389 C6.44000001,23.3225389 6.00380249,24.1107317 6.00380246,24.5 C6.00380243,24.8892683 6.33565431,25.2170732 6.7297284,25.2170732 L21.0615802,25.2170732 C21.4556543,25.2170732 21.7875061,24.8892683 21.7875062,24.5 C21.7875062,24.1107317 21.56,23.3225389 21.1659259,23.3225389 L14.7362963,23.3225389 L14.7362963,21.0080927 L23.3781869,21.0080927 C24.4359647,21.0080927 25.6666666,19.8106645 25.6666667,18.7657864 L25.6666667,5.81829357 C25.6666667,4.77341552 24.4359647,3.50000003 23.3781869,3.5 Z M23.5361766,18.8820122 C23.5361766,19.1278659 23.3287692,19.3327439 23.0798803,19.3327439 L4.85246259,19.3327439 C4.60357369,19.3327439 4.39616629,19.1278659 4.39616629,18.8820122 L4.39616629,5.79894336 C4.39616629,5.5530897 4.60357369,5.09666693 4.85246259,5.09666693 L23.0798803,5.09666693 C23.3287692,5.09666693 23.5361766,5.5530897 23.5361766,5.79894336 L23.5361766,18.8820122 Z" id="Shape" fill="#157EFB"></path>
                            </g>
                        </g>
                    </g>
                </g>
            </g>
        </g>
    </g>
</svg>