<?xml version="1.0" encoding="UTF-8"?>
<svg width="21px" height="24px" viewBox="0 0 21 24" version="1.1" xmlns="http://www.w3.org/2000/svg" xmlns:xlink="http://www.w3.org/1999/xlink">
    <!-- Generator: Sketch 52.6 (67491) - http://www.bohemiancoding.com/sketch -->
    <title>nas</title>
    <desc>Created with Sketch.</desc>
    <g id="Page-1" stroke="none" stroke-width="1" fill="none" fill-rule="evenodd">
        <g id="G+3" transform="translate(-1074.000000, -135.000000)" fill-rule="nonzero">
            <g id="双向同步列表" transform="translate(1059.000000, 59.000000)">
                <g id="3-copy-3">
                    <g id="Group-5" transform="translate(0.000000, 65.000000)">
                        <g id="nas-copy" transform="translate(12.000000, 9.000000)">
                            <g id="nas">
                                <rect id="Rectangle" fill="#000000" opacity="0" x="0" y="0" width="28" height="28"></rect>
                                <path d="M9.90421936,3.89925294 L9.90421936,24.0573176 C9.90421936,24.2989422 9.72830685,24.4948176 9.51130776,24.4948176 L5.24537418,24.4948176 C5.0283751,24.4948176 4.85246259,24.2989422 4.85246259,24.0573176 L4.85246259,3.89925294 C4.85246259,3.65762836 5.0283751,3.46175294 5.24537418,3.46175294 L9.51130776,3.46175294 C9.72830685,3.46175294 9.90421936,3.65762836 9.90421936,3.89925294 Z M10.0625,2.35791768 L5.25,2.35791768 C4.28350169,2.35791768 3.5,2.53350169 3.5,3.5 L3.5,24.5 C3.5,25.4664983 4.28350169,25.6680019 5.25,25.6680019 L10.0625,25.6680019 C11.0289983,25.6680019 11.681959,25.4664983 11.681959,24.5 L11.681959,3.5 C11.681959,2.53350169 11.0289983,2.35791768 10.0625,2.35791768 Z M22.0918345,4.375 L22.0918345,23.9120406 C22.0918345,24.1536652 21.8959591,24.3495406 21.6543345,24.3495406 L14.9100181,24.3495406 C14.6683936,24.3495406 14.4725181,24.1536652 14.4725181,23.9120406 L14.4725181,4.375 C14.4725181,4.13337542 14.6683936,3.9375 14.9100181,3.9375 L21.6543345,3.9375 C21.8959591,3.9375 22.0918345,4.13337542 22.0918345,4.375 Z M21.7861766,2.34829385 L14.3263883,2.34829385 C13.35989,2.34829385 12.8333333,2.48408069 12.8333333,3.450579 L12.8333333,24.450579 C12.8333333,25.4170773 13.35989,25.6567127 14.3263883,25.6567127 L21.7861766,25.6567127 C22.7526749,25.6567127 23.5361766,25.4170773 23.5361766,24.450579 L23.5361766,3.450579 C23.5361766,2.48408069 22.7526749,2.34829385 21.7861766,2.34829385 Z" id="Shape" fill="#157EFB"></path>
                                <path d="M7.2813518,11.5208333 C6.7376965,11.5208333 6.13435464,11.6761633 6.13435464,12.0386002 L6.13435464,15.1011002 C6.13435464,15.463537 6.7376965,15.8958333 7.2813518,15.8958333 C7.8250071,15.8958333 7.8282268,15.463537 7.8282268,15.1011002 L7.8282268,12.0386002 C7.8282268,11.6761633 7.8250071,11.5208333 7.2813518,11.5208333 Z M5.24440718,4.43575081 L5.24440718,6.06848388 L6.07360715,6.06848388 L6.07360715,4.38630322 L5.24440718,4.43575081 Z M7.58537386,4.43575081 L7.58537386,6.06848388 L8.69097381,6.06848388 L8.69097381,4.38630322 L7.58537386,4.43575081 Z M16.622932,11.5208333 C15.6990764,11.5208333 15.7201249,11.8146465 15.7201249,12.1770833 L15.7201249,15.2395833 C15.7201249,15.6020202 15.6990764,15.8958333 16.622932,15.8958333 C17.5467876,15.8958333 17.4684371,15.5305689 17.4684371,15.1681321 L17.4684371,12.1056321 C17.4684371,11.7431952 17.5467876,11.5208333 16.622932,11.5208333 Z" id="Shape" fill="#157EFB"></path>
                                <path d="M19.8859589,6.52081424 L19.7526841,9.1875 L17.0524782,9.30124696 L17.180923,6.41570072 L19.1967449,6.52081424 L19.8859589,6.52081424 Z M19.8333333,5.25 L16.9166667,5.25 C16.2723345,5.25 15.75,5.77233446 15.75,6.41666667 L15.75,9.33333333 C15.75,9.97766554 16.2723345,10.5 16.9166667,10.5 L19.8333333,10.5 C20.4776655,10.5 21,9.97766554 21,9.33333333 L21,6.41666667 C21,5.77233446 20.4776655,5.25 19.8333333,5.25 Z" id="Shape" fill="#157EFB"></path>
                            </g>
                        </g>
                    </g>
                </g>
            </g>
        </g>
    </g>
</svg>