<?xml version="1.0" encoding="UTF-8"?>
<svg width="10px" height="8px" viewBox="0 0 10 8" version="1.1" xmlns="http://www.w3.org/2000/svg" xmlns:xlink="http://www.w3.org/1999/xlink">
    <!-- Generator: Sketch 52.6 (67491) - http://www.bohemiancoding.com/sketch -->
    <title>单向</title>
    <desc>Created with Sketch.</desc>
    <g id="Page-1" stroke="none" stroke-width="1" fill="none" fill-rule="evenodd">
        <g id="G+3" transform="translate(-1124.000000, -299.000000)" fill-rule="nonzero">
            <g id="双向同步列表" transform="translate(1059.000000, 59.000000)">
                <g id="3-copy-3">
                    <g id="Group-5" transform="translate(0.000000, 65.000000)">
                        <g id="Group-2-Copy" transform="translate(45.000000, 151.000000)">
                            <g id="单向" transform="translate(19.000000, 22.000000)">
                                <rect id="Rectangle" fill="#000000" opacity="0" x="0" y="0" width="12" height="12"></rect>
                                <path d="M10.7648438,5.73398438 L7.57148437,2.540625 C7.42734375,2.39648438 7.190625,2.39648438 7.04648438,2.540625 L7.03828125,2.54882813 C6.89414063,2.69296875 6.89414063,2.92851563 7.03828125,3.07265625 L9.60117187,5.63554688 L3.01875,5.63554688 C2.81601562,5.63554688 2.64960937,5.80195313 2.64960937,6.0046875 C2.64960937,6.20742188 2.81601562,6.37382813 3.01875,6.37382813 L9.58242188,6.37382813 L7.0453125,8.91210938 C6.89882813,9.05859375 6.89882813,9.29765625 7.0453125,9.44414063 C7.19179688,9.590625 7.43085937,9.590625 7.57734375,9.44414063 L10.7542969,6.2671875 C10.7542969,6.2671875 10.7554688,6.26601562 10.7566406,6.26601562 L10.7648438,6.2578125 C10.9089844,6.11367187 10.9089844,5.878125 10.7648438,5.73398437 Z" id="Path" fill="#4D4D4D" opacity="0.52608817"></path>
                                <path d="M1.14375,6.00703125 C1.14375,6.13974984 1.21477788,6.26238687 1.33007812,6.32874616 C1.44537837,6.39510546 1.58743413,6.39510546 1.70273438,6.32874616 C1.81803462,6.26238687 1.8890625,6.13974984 1.8890625,6.00703125 C1.8890625,5.87431266 1.81803462,5.75167563 1.70273438,5.68531634 C1.58743413,5.61895704 1.44537837,5.61895704 1.33007812,5.68531634 C1.21477788,5.75167563 1.14375,5.87431266 1.14375,6.00703125 Z" id="Path" fill="#4D4D4D"></path>
                            </g>
                        </g>
                    </g>
                </g>
            </g>
        </g>
    </g>
</svg>