<?xml version="1.0" encoding="UTF-8"?>
<svg width="32px" height="32px" viewBox="0 0 32 32" version="1.1" xmlns="http://www.w3.org/2000/svg" xmlns:xlink="http://www.w3.org/1999/xlink">
    <!-- Generator: Sketch 52.6 (67491) - http://www.bohemiancoding.com/sketch -->
    <title>@1x查询同步列表</title>
    <desc>Created with Sketch.</desc>
    <g id="Page-1" stroke="none" stroke-width="1" fill="none" fill-rule="evenodd">
        <g id="G+2" transform="translate(-1234.000000, -303.000000)">
            <g id="菜单" transform="translate(1178.000000, 64.000000)">
                <g id="同步历史-copy-2" transform="translate(29.000000, 228.000000)">
                    <g id="查询同步列表" transform="translate(22.000000, 6.000000)">
                        <rect id="Rectangle" fill="#000000" fill-rule="nonzero" opacity="0" x="0" y="0" width="42" height="42"></rect>
                        <path d="M21.0178372,5 C23.2296544,5 25.3047194,5.4221479 27.2430323,6.2664437 C29.1813452,7.1107395 30.8699368,8.25232256 32.3088071,9.69119287 C33.7476774,11.1300632 34.8892605,12.8246005 35.7335563,14.7748049 C36.5778521,16.7250093 37,18.8060201 37,21.0178372 C37,23.2296544 36.5778521,25.3047194 35.7335563,27.2430323 C34.8892605,29.1813452 33.7476774,30.8699368 32.3088071,32.3088071 C30.8699368,33.7476774 29.1813452,34.8892605 27.2430323,35.7335563 C25.3047194,36.5778521 23.2296544,37 21.0178372,37 C18.8060201,37 16.7250093,36.5778521 14.7748049,35.7335563 C12.8246005,34.8892605 11.1300632,33.7476774 9.69119287,32.3088071 C8.25232256,30.8699368 7.1107395,29.1813452 6.2664437,27.2430323 C5.4221479,25.3047194 5,23.2296544 5,21.0178372 C5,18.8060201 5.4221479,16.7250093 6.2664437,14.7748049 C7.1107395,12.8246005 8.25232256,11.1300632 9.69119287,9.69119287 C11.1300632,8.25232256 12.8246005,7.1107395 14.7748049,6.2664437 C16.7250093,5.4221479 18.8060201,5 21.0178372,5 Z" id="Shape" fill="#F68D53" fill-rule="nonzero"></path>
                        <g id="Group-Copy" transform="translate(14.000000, 15.000000)" fill="#FFFFFF" stroke="#FFFFFF" stroke-width="0.7">
                            <path d="M1.456,9.2358 C1.06940068,9.2358 0.756,9.54920068 0.756,9.9358 C0.756,10.3223993 1.06940068,10.6358 1.456,10.6358 L12.81,10.6358 C13.1965993,10.6358 13.51,10.3223993 13.51,9.9358 C13.51,9.54920068 13.1965993,9.2358 12.81,9.2358 L1.456,9.2358 Z" id="Path"></path>
                            <path d="M13.363,10.3656 C13.5232061,10.1688131 13.5643696,9.90073507 13.4705853,9.6649479 C13.3768011,9.42916074 13.1627568,9.26259144 12.9111566,9.22960035 C12.6595564,9.19660925 12.4098038,9.30236313 12.2584,9.506 L9.7692,12.7064 C9.53182803,13.0118135 9.58698656,13.451828 9.89240002,13.6892 C10.1978135,13.926572 10.637828,13.8714135 10.8752,13.566 L13.363,10.3656 Z" id="Path"></path>
                            <path d="M12.81,4.6354 C13.1965993,4.6354 13.51,4.32199932 13.51,3.9354 C13.51,3.54880068 13.1965993,3.2354 12.81,3.2354 L1.456,3.2354 C1.06940068,3.2354 0.756,3.54880068 0.756,3.9354 C0.756,4.32199932 1.06940068,4.6354 1.456,4.6354 L12.81,4.6354 Z" id="Path"></path>
                            <path d="M0.903,3.5056 C0.665628024,3.81101347 0.720786547,4.25102801 1.02620001,4.48839999 C1.33161347,4.72577197 1.77162801,4.67061346 2.009,4.3652 L4.4968,1.1648 C4.65355172,0.967491952 4.69215335,0.701158012 4.59786951,0.467465638 C4.50358567,0.233773264 4.29096947,0.0687938577 4.04118273,0.0355048862 C3.791396,0.0022159147 3.54299436,0.105755671 3.3908,0.3066 L0.9044,3.5056 L0.903,3.5056 Z" id="Path"></path>
                        </g>
                    </g>
                </g>
            </g>
        </g>
    </g>
</svg>