<?xml version="1.0" encoding="UTF-8"?>
<svg width="10px" height="10px" viewBox="0 0 10 10" version="1.1" xmlns="http://www.w3.org/2000/svg" xmlns:xlink="http://www.w3.org/1999/xlink">
    <!-- Generator: Sketch 52.6 (67491) - http://www.bohemiancoding.com/sketch -->
    <title>双向</title>
    <desc>Created with Sketch.</desc>
    <g id="Page-1" stroke="none" stroke-width="1" fill="none" fill-rule="evenodd">
        <g id="G+3" transform="translate(-1125.000000, -202.000000)" fill-rule="nonzero">
            <g id="双向同步列表" transform="translate(1059.000000, 59.000000)">
                <g id="3-copy-3">
                    <g id="Group-5" transform="translate(0.000000, 65.000000)">
                        <g id="Group-3" transform="translate(10.000000, 52.000000)">
                            <g id="Group-2" transform="translate(36.000000, 0.000000)">
                                <g id="双向" transform="translate(18.000000, 23.000000)">
                                    <rect id="Rectangle" fill="#000000" opacity="0" x="0" y="0" width="16" height="16"></rect>
                                    <path d="M11.563748,9 L2.10869439,9 C2.04891248,9 2,9.05294118 2,9.11764706 L2,10 C2,10.0647059 2.04891248,10.1176471 2.10869439,10.1176471 L10.3314253,10.1176471 L8.37085019,12.8088235 C8.31514432,12.8852941 8.36541547,13 8.45644703,13 L9.44148998,13 C9.50806529,13 9.57056457,12.9676471 9.61268365,12.9102941 L11.9061354,9.76176471 C12.1303176,9.45294118 11.9278742,9 11.563748,9 Z M11.891306,5.88235294 L3.6686019,5.88235294 L5.62917063,3.19117647 C5.68487633,3.11470588 5.63460533,3 5.54357408,3 L4.55853435,3 C4.49195925,3 4.42946018,3.03235294 4.38734124,3.08970588 L2.09389701,6.23823529 C1.86971555,6.54705882 2.0721582,7 2.43492456,7 L11.891306,7 C11.9510877,7 12,6.94705882 12,6.88235294 L12,6 C12,5.93529412 11.9510877,5.88235294 11.891306,5.88235294 Z" id="Shape" fill="#B3B3B3"></path>
                                </g>
                            </g>
                        </g>
                    </g>
                </g>
            </g>
        </g>
    </g>
</svg>